<?xml version="1.0" standalone="no"?>
<!DOCTYPE svg PUBLIC "-//W3C//DTD SVG 20010904//EN"
 "http://www.w3.org/TR/2001/REC-SVG-20010904/DTD/svg10.dtd">
<svg version="1.0" xmlns="http://www.w3.org/2000/svg"
 width="267.000000pt" height="335.000000pt" viewBox="0 0 267.000000 335.000000"
 preserveAspectRatio="xMidYMid meet">

<g transform="translate(0.000000,335.000000) scale(0.100000,-0.100000)"
fill="#000000" stroke="none">
<path d="M443 3033 c-61 -21 -136 -92 -164 -155 l-24 -53 0 -635 c0 -601 1
-638 19 -684 25 -65 88 -133 151 -162 46 -22 63 -24 223 -24 l172 0 0 -197 c1
-122 6 -228 14 -275 40 -221 213 -405 436 -463 88 -23 250 -16 337 15 165 58
299 192 361 361 27 74 27 75 30 391 l3 317 32 3 32 3 3 108 3 107 29 0 c49 0
52 17 48 298 l-3 257 25 41 c14 22 85 96 158 164 72 67 132 130 132 140 0 9
-9 25 -20 35 -21 19 -20 19 21 61 l41 42 -78 84 c-42 45 -84 85 -92 86 -8 2
-31 -13 -52 -33 l-38 -37 -18 26 c-10 16 -24 26 -34 24 -10 -2 -97 -76 -193
-166 -137 -127 -179 -172 -192 -205 -13 -36 -15 -94 -13 -427 l3 -385 38 -3
37 -3 0 -110 0 -109 30 0 30 0 0 -297 c-1 -312 -5 -352 -46 -439 -97 -205
-317 -325 -543 -294 -165 22 -321 134 -394 282 -50 103 -58 162 -55 393 l3
200 180 5 c173 5 182 6 226 32 61 36 112 94 135 154 18 46 19 85 19 684 l0
635 -24 53 c-29 65 -104 134 -168 156 -67 23 -756 22 -820 -1z m781 -57 c66
-20 110 -57 140 -118 l26 -52 0 -620 0 -621 -24 -51 c-26 -56 -74 -98 -133
-120 -54 -19 -702 -19 -756 0 -59 22 -107 64 -133 120 l-24 51 0 621 0 620 26
52 c30 60 74 98 136 117 64 20 676 21 742 1z m1149 -208 l35 -42 -41 -36 -40
-36 24 -33 24 -33 -127 -121 c-69 -67 -134 -138 -145 -157 -16 -31 -18 -66
-21 -292 l-3 -258 -40 0 -39 0 0 -110 0 -110 -35 0 -35 0 0 110 0 110 -35 0
-35 0 0 358 c0 323 2 359 18 382 22 32 297 290 309 290 5 0 20 -11 33 -25 l23
-24 40 34 c22 19 44 35 48 35 4 0 23 -19 42 -42z"/>
<path d="M776 2408 l-216 -263 115 -3 c111 -3 115 -3 115 -25 -1 -12 -14 -112
-29 -222 -16 -110 -28 -201 -27 -202 1 -1 95 118 209 265 l208 267 -116 3
c-82 2 -115 6 -115 15 0 7 18 104 40 216 22 113 38 206 36 208 -2 2 -101 -115
-220 -259z"/>
</g>
</svg>
